<svg height="512pt" viewBox="-60 0 512 512.00047" width="512pt" xmlns="http://www.w3.org/2000/svg"><path d="m193.519531.0117188c-99.609375 1.3789062-182.195312 77.9765622-192.6875 175.5703122-.453125 4.21875 2.601563 7.996094 6.816407 8.449219 4.210937.449219 7.996093-2.59375 8.449218-6.808594 9.84375-91.613281 87.328125-161.875 180.21875-161.875 99.941406 0 181.242188 81.3125 181.242188 181.242188 0 42.488281-15 83.789062-42.234375 116.292968-2.722657 3.257813-2.292969 8.097657.964843 10.824219 3.21875 2.710938 8.085938 2.304688 10.808594-.953125 29.546875-35.28125 45.816406-80.082031 45.816406-126.164062 0-108.28125-88.300781-197.800782-199.394531-196.5781252zm0 0"/><path d="m314.664062 333.851562c-19.105468 16.515626-30.460937 18.382813-41.351562 37.59375l-67.84375 119.855469c-4.042969 7.117188-14.269531 7.113281-18.308594 0l-67.855468-119.867187c-5.117188-9.039063-12.519532-16.871094-21.417969-22.632813-48.546875-31.453125-79.40625-84.597656-82.546875-142.15625-.226563-4.238281-3.851563-7.472656-8.078125-7.246093-4.238281.234374-7.484375 3.847656-7.2500002 8.085937 3.4101562 62.441406 36.8789062 120.089844 89.5195312 154.203125 6.832031 4.421875 12.503906 10.414062 16.414062 17.3125l67.847657 119.867188c9.914062 17.5 35.117187 17.519531 45.046875 0 95.800781-169.242188 60.324218-114.089844 105.859375-153.386719 3.214843-2.761719 3.574219-7.617188.796875-10.832031-2.773438-3.203126-7.617188-3.5625-10.832032-.796876zm0 0"/><path d="m315.824219 141.960938c1.871093 4.117187 6.726562 5.941406 10.84375 4.070312 4.117187-1.871094 5.941406-6.726562 4.070312-10.84375-12.40625-27.316406-32.609375-49.945312-58.425781-65.441406-98.566406-59.15625-223.695312 12.429687-223.695312 126.492187 0 82.449219 67.011718 147.832031 147.566406 147.832031 94.035156 0 163.902344-86.527343 144.660156-178.058593-.933594-4.425781-5.277344-7.253907-9.703125-6.332031-4.425781.933593-7.261719 5.273437-6.328125 9.703124 7.25 34.484376.640625 71.597657-21.253906 102.734376-19.300782-27.300782-24.523438-37.460938-54.632813-51.457032 42.28125-45.722656 9.746094-120.285156-52.609375-120.285156-39.519531 0-71.667968 32.148438-71.667968 71.664062 0 18.746094 7.230468 35.835938 19.054687 48.621094-29.929687 13.910156-35.097656 23.816406-54.710937 51.578125-29.160157-41.109375-32.757813-97.613281-5.257813-143.433593 54.878906-91.4375 188.851563-82.042969 232.089844 13.15625zm-119.507813-25.207032c30.488282 0 55.285156 24.796875 55.285156 55.285156 0 47.726563-56.621093 72.835938-92.03125 41.28125-37.828124-33.710937-13.890624-96.566406 36.746094-96.566406zm-38.773437 115.539063c23.683593 15.273437 54.046875 15.179687 77.53125 0 14.453125 6.65625 28.902343 12.214843 41.589843 30.148437 0 0 16.222657 22.953125 16.226563 22.953125-51.78125 56.5625-141.054687 56.207031-193.175781.03125 25.375-35.886719 24.300781-37.566406 57.828125-53.132812zm0 0"/></svg>